<svg xmlns="http://www.w3.org/2000/svg" width="44" height="44" fill="none" viewBox="0 0 44 44"><path fill="#00d4aa" d="M36.2 38.8q-4.5 3.7-10 4.8l-1.5.2A22 22 0 0 1 .5 26.4l-.3-1.5A22 22 0 0 1 17.2.5a19 19 0 0 1 6.5-.5A21.7 21.7 0 0 1 44 24a22 22 0 0 1-7.7 14.9m-5.3 2q4-2 6.8-5.2A20.7 20.7 0 1 0 1.5 19.4a20.7 20.7 0 0 0 29.4 21.3"/><path fill="#00d4aa" d="m32.4 35.1-.7 1q0-1.1.3-2.3l-.2-.7-.6-2.4-1.4-.5-2.4-.8h-.2v.2l1.7 1 1 .7-.2 2.9q0 .6-.7 1l-2.6 1.6 1.4-2 .4-1 .1-1.8-1-.7-1.6-1-7.1-.1-2.6 1.7-.2.1.2 2.3q1 1.1 1.8 2.5l-3-1.8-.4-.7-.1-3 2.6-1.7q0-.1 0-.2l-2.4.7-1.5.5-.7 2.7q-.1.3-.1.7l.2 2.2-1.3-2.2q-.2-.2-.2-.6l.6-2.7.4-1.2 2.4-.8q.4 0 .9-.3l-3.4.2-2.4 2.8-1 2v-1.6l.1-1.5 1.7-2 1-1 3-.3-3-.7-1.8-.3-1.1-.8q-.4 0-.7-.4c-.1-.2-.8-2.8-.6-2.6h.1q.6.9 1.2 1.6c1.4 1 1.7 1 3.4 1.2l1.3.2c-.4-.8.1-.6.3-1.2l-1.9-.7q-.8-.3-1.3-1-.3-.4-.2-1c-.8-.6-1.4-1-1.9-2q-.5-1.5-.3-3a6 6 0 0 1-.1-5q.5-1 1.3-1.8l1.2-.2c1.3-2 3.8-3.3 6.3-3.1a10 10 0 0 0-3.4 3.9c1.4 1 2 1.8 2.7 3.2q.3.3.1.6a5 5 0 0 1-1.4 2.3q-1 .9-2.5 1.2.5 1 .4 2.1.5.2.8.6l.6.6 1.3.9 1.5-1.3 2.7-.8q0-.2-.2-.5-.9.3-1.3-.5T18 17q.7-.4 1.5 0 .3.6.3 1l.7 1.2h3.1l.7-1q0-.8.5-1.2t1.2 0q.8.5.5 1.3-.4 1-1.3.8-.3 0-.3.4l2.7.7 1.6 1.3q1-.4 1.7-1.2.3-.5 1-.8 0-1.1.3-2a5 5 0 0 1-4-3.9 8 8 0 0 1 3-3.5A9 9 0 0 0 28 6.5l-.3-.3q2.2-.2 4.2 1 1.2.8 2 2.1l1.3.1c1.5 1.4 2.5 3.6 1.9 5.5l-.6 1.5c0 .3.3 2.3-.8 3.6q-.7.8-1.5 1.3 0 .6-.2 1-.4.5-.9.8l-2.3.9.5.7-.1.5 3.4-.6 1.2-.8q.5-.5.9-1.1l.4-.6c0 .6-.3 2.2-.6 2.8q-.9.6-1.8 1-.6.2-1.3.3L30 27q.6.3 1.2.2l1.8.1 1.5 1.8 1 1 .2.6.2 2.6q0 0-.1 0l-.4-.6c-.5-1-.3-.9-1-1.7l-1.3-1.5-.8-.8h-1l-2.3-.3v.1l.9.3 2.4.8 1 4zM18.6 17.4q-.5 0-.5.6.1.5.7.4t.4-.6q0-.5-.6-.4m7 1q.6-.1.4-.7-.2-.4-.7-.3t-.4.7q.2.4.8.3"/><path fill="#00d4aa" d="M25.2 14.6h-6.4V8.5h6.4v6.1M19.7 9q-.4.3-.3.8t.7.3q.4-.3.3-.8a1 1 0 0 0-.7-.3m4.2 0q-.6.3-.3.8.1.5.6.3t.4-.7a.5.5 0 0 0-.7-.4m-2.2 2c-.3 0-.3.5-.2.7q.3.3.7.2t.3-.7a.5.5 0 0 0-.8-.3m-2 1.8q-.4.3-.3.8t.7.3q.4-.2.3-.8-.1-.4-.7-.3m4.2 0q-.4.2-.4.7.2.5.7.4t.4-.7q0-.4-.7-.4"/><path fill="#fff" d="M25.7 18.4q-.6.1-.8-.3 0-.6.4-.7t.7.3q0 .5-.3.7M18.6 17.4q.5 0 .6.4t-.4.6-.7-.4q0-.5.5-.6M19.7 9.1q.5 0 .7.3.2.5-.3.8-.4 0-.7-.3-.1-.5.3-.8M19.7 13q.5-.2.7.2.2.6-.3.8-.5 0-.7-.3-.2-.6.3-.8M23.9 9.1q.5 0 .7.4t-.4.7q-.4 0-.6-.3-.2-.5.3-.8M24 13q.4-.2.6.3 0 .5-.4.7t-.7-.4q-.1-.5.4-.7"/></svg>