<svg width="51" height="51" viewBox="0 0 51 51" fill="none" xmlns="http://www.w3.org/2000/svg">
<rect width="51" height="51" fill="#F5F5F5"/>
<path d="M41.9521 44.9526C38.5704 47.7688 34.6552 49.7198 30.3592 50.553C29.74 50.6727 29.2159 50.7273 28.5948 50.8037C22.4789 51.5483 16.2564 50.0553 11.1781 46.5643C10.1857 45.8819 9.2639 45.2052 8.38737 44.3889C7.24693 43.3286 6.21205 42.2532 5.26482 41.0157C3.78602 39.0845 2.61448 37.0308 1.74926 34.7574C1.22145 33.3719 0.791664 32.043 0.546611 30.583L0.263858 28.9044C-0.227191 25.9855 0.00749483 23.0477 0.635208 20.1447C1.61259 15.6235 3.80676 11.5132 6.95663 8.14089C10.5024 4.34445 15.0019 1.76103 20.067 0.627189C21.3186 0.347263 22.4864 0.135198 23.7692 0.0607397C25.0189 -0.0127762 26.2536 -0.0231448 27.5081 0.0494285C31.2715 0.268091 35.3903 1.55462 38.6071 3.50656C41.0888 5.01175 43.2801 6.88924 45.118 9.13053C46.5421 10.8666 47.7108 12.6791 48.6477 14.7187C50.1029 17.8893 50.7834 20.7998 50.9729 24.2899C51.0351 25.4284 50.9804 26.5227 50.888 27.6612C50.3442 34.3663 47.1566 40.6217 41.953 44.9545L41.9521 44.9526ZM35.8493 47.2071C38.8446 45.7546 41.461 43.748 43.6665 41.2447C47.1199 37.3258 49.2424 32.1156 49.5223 26.8799C49.6119 25.2051 49.5723 23.6358 49.3235 21.9694C48.5412 16.7083 46.0407 11.796 42.2113 8.09659C39.5421 5.51788 36.3366 3.62343 32.8069 2.49996C26.8936 0.616821 20.5439 1.22003 14.9906 3.93823C10.9783 5.90243 7.66446 8.91563 5.26577 12.6819C3.37603 15.6489 2.15454 18.9534 1.70402 22.4671C0.942466 28.4134 2.32136 34.1693 5.65785 39.1184C6.3374 40.126 7.05277 40.978 7.88124 41.8649C14.9944 49.4813 26.3941 51.7914 35.8493 47.208V47.2071Z" fill="#00D4AA"/>
<path d="M37.559 40.6924C37.3017 41.1533 37.0642 41.5369 36.7466 41.9412C36.8173 40.9563 36.9577 40.1165 37.0831 39.1665C37.1142 38.9318 36.9605 38.5906 36.8983 38.3578L36.1387 35.5359L34.494 34.9591L31.706 34.1137C31.6476 34.0958 31.5279 34.1175 31.4874 34.1307C31.4468 34.1438 31.5496 34.2532 31.592 34.2777C32.2583 34.6669 32.9153 35.108 33.5524 35.5463L34.6222 36.2824L34.378 39.5906C34.3385 40.1307 34.1019 40.4577 33.6542 40.7198C32.6108 41.3305 31.7032 42.0845 30.558 42.6387C31.083 41.7961 31.6174 41.0477 32.1895 40.3116C32.4713 39.9488 32.6024 39.6538 32.6495 39.1797L32.8568 37.0883L31.6184 36.2834C30.9775 35.8658 30.3686 35.5096 29.7362 35.0138L21.5392 35.01L18.5599 36.9243C18.4835 36.9733 18.3751 37.0722 18.2988 37.142L18.5834 39.7C19.2564 40.6802 20.0236 41.5275 20.6815 42.6019C19.4468 41.9723 18.3525 41.2768 17.2413 40.5576C16.9227 40.3512 16.7569 40.076 16.7361 39.7009L16.541 36.2673L19.5768 34.2579C19.6391 34.2164 19.7182 34.0656 19.6796 34.0637C19.6409 34.0619 19.5514 34.0656 19.4977 34.0826L16.7691 34.9299L15.0396 35.5237L14.2347 38.6019C14.1668 38.8602 14.0528 39.1156 14.0952 39.388C14.2309 40.2626 14.3676 41.0657 14.4109 41.9507C13.8275 41.0958 13.394 40.3032 12.9114 39.4436C12.8021 39.2494 12.5193 38.9299 12.5825 38.6877L13.3817 35.6377C13.5118 35.1401 13.606 34.6311 13.8068 34.1929L16.542 33.2984C16.9058 33.1797 17.2969 33.1863 17.6127 32.8771L13.6984 33.1297L10.8784 36.3776L9.62769 38.6132C9.62769 38.01 9.64843 37.4294 9.70404 36.8451L9.86898 35.108L11.819 32.8715L12.9321 31.5887C14.1122 31.4436 15.2601 31.4888 16.4807 31.2673L12.9538 30.4888C12.2875 30.3418 11.5589 30.3484 10.9255 30.0863C10.4524 29.8903 10.0528 29.501 9.57586 29.2664C9.31949 29.1401 9.03203 28.9572 8.83033 28.7348C8.65126 28.5661 7.90762 25.4869 8.16021 25.7084L8.26483 25.7998C8.81902 26.2861 9.04711 27.125 9.65597 27.5698C11.2846 28.7612 11.5834 28.6377 13.5212 28.9855L15.0368 29.2569C14.6202 28.3238 15.2309 28.5095 15.4392 27.7857L13.2554 27.0024C12.606 26.7696 12.1433 26.3823 11.7427 25.8186C11.5061 25.4859 11.4006 25.1165 11.4929 24.6791C10.5928 23.9789 9.80018 23.4944 9.32986 22.3992C8.86238 21.3097 8.77567 20.1513 8.92364 18.976C7.89065 17.2606 7.94625 14.9807 8.76247 13.1918C9.15173 12.3388 9.70781 11.631 10.361 10.9769C10.819 10.8883 11.2837 10.8384 11.7597 10.8026C13.2639 8.37464 16.1122 6.94485 18.985 7.16634L19.0613 7.28604C17.607 8.33506 15.7729 9.9722 15.1027 11.6932C16.689 12.7828 17.3129 13.7743 18.2507 15.3728C18.394 15.6169 18.4458 15.8676 18.3629 16.1456C18.0547 17.1711 17.4647 18.0062 16.6994 18.7328C15.8737 19.517 14.9359 19.9883 13.7691 20.2069C14.2102 20.9968 14.2696 21.7847 14.2253 22.6198C14.6522 22.7856 14.9944 22.9855 15.2404 23.3295C15.4298 23.5519 15.64 23.7988 15.8747 23.961L17.3817 25.0015L19.1273 23.4991L22.3092 22.6527C22.2385 22.3964 22.1527 22.2428 22.0123 22.058C21.3497 22.2503 20.8125 21.9346 20.5033 21.419C20.1942 20.9034 20.3148 20.1523 20.8228 19.7536C21.3309 19.3549 22.082 19.4077 22.5637 19.8064C22.9473 20.1249 22.8511 20.5613 23.0066 20.9704C23.1782 21.4237 23.5571 21.8243 23.7946 22.2805L27.3752 22.2842L28.149 21.026C28.1791 20.4661 28.3054 19.9836 28.7428 19.7159C29.1801 19.4482 29.7079 19.3964 30.1829 19.6527C30.7447 19.9553 30.9577 20.697 30.7362 21.2654C30.4911 21.8931 29.8644 22.1985 29.1641 22.0938C28.9935 22.1598 28.8587 22.4171 28.8559 22.648L32.0227 23.4577L33.7927 24.9713C34.4864 24.5378 35.2169 24.141 35.7739 23.534C36.1245 23.1513 36.4308 22.7932 36.9332 22.5934C36.9021 21.7253 37.0416 20.9713 37.3762 20.1805C35.4129 19.8233 33.9313 18.5368 33.1104 16.8403C32.9549 16.5189 32.7927 16.1513 32.7522 15.7818C33.6127 13.9543 34.4516 12.8836 36.0925 11.6791C35.5298 10.1711 33.7918 8.41611 32.4893 7.55843C32.3403 7.46041 32.2074 7.35013 32.0557 7.19556C33.7664 6.99669 35.4365 7.42365 36.9304 8.30207C37.953 8.90339 38.7494 9.76862 39.3903 10.778L40.7928 10.9345C42.5468 12.5396 43.7334 15.0363 42.9549 17.255L42.3545 18.9647C42.2197 19.3474 42.6118 21.7036 41.4224 23.174C40.937 23.7743 40.2951 24.2324 39.6797 24.6763C39.7381 25.1382 39.6976 25.5896 39.3724 25.944C39.0991 26.2409 38.7881 26.632 38.395 26.7809L35.7117 27.7989L36.3064 28.666L36.1632 29.256L40.0736 28.4916L41.5072 27.6273C41.9587 27.3106 42.1745 26.6612 42.5148 26.2541L43.0331 25.633C43.0699 26.3644 42.6458 28.2107 42.2735 28.8111C41.6156 29.2937 40.9323 29.7753 40.1896 30.1052C39.7692 30.2918 39.2122 30.2899 38.7579 30.3851L34.7428 31.2268C35.2329 31.4332 35.6815 31.354 36.1547 31.3917L38.265 31.5585L39.9803 33.5736L41.0633 34.8347C41.2282 35.027 41.3668 35.2343 41.3828 35.4907L41.5732 38.4728C41.5223 38.5331 41.4488 38.6217 41.4855 38.5774L41.0671 37.7923C40.4949 36.7188 40.7306 36.7735 39.871 35.8093L38.3347 34.0864L37.4553 33.1005L36.363 33.0449L33.6523 32.8592L33.5788 32.9714L34.624 33.3003L37.4393 34.1759L38.6071 38.8121L37.56 40.6886L37.559 40.6924ZM21.5382 20.1287C21.1744 20.1871 20.9473 20.5481 21.017 20.8921C21.0868 21.2362 21.4157 21.4501 21.8229 21.3568C22.1037 21.2927 22.3507 20.9751 22.2573 20.5905C22.1904 20.3163 21.8935 20.0712 21.5382 20.1287ZM29.7324 21.3559C30.1132 21.2362 30.2301 20.8808 30.1236 20.567C30.017 20.2531 29.7258 20.0674 29.3639 20.1438C28.9793 20.2239 28.7833 20.6122 28.8964 20.9609C28.9982 21.2729 29.3516 21.4765 29.7324 21.3568V21.3559Z" fill="#00D4AA"/>
<path d="M29.2103 16.8978L23.7833 16.8808L21.7692 16.8658L21.7795 9.83556H29.1924L29.1886 14.7131L29.2103 16.8987V16.8978ZM22.8191 10.583C22.4468 10.7319 22.3168 11.1202 22.4779 11.4444C22.6391 11.7686 23.0057 11.9166 23.3319 11.7668C23.658 11.6169 23.8022 11.2361 23.6504 10.9204C23.5062 10.6207 23.1471 10.452 22.8182 10.5839L22.8191 10.583ZM27.6655 10.5896C27.28 10.7338 27.1782 11.1532 27.3083 11.452C27.4459 11.7677 27.8003 11.8912 28.0962 11.7875C28.4431 11.6669 28.608 11.2946 28.4855 10.9694C28.3715 10.6659 28.0303 10.4538 27.6655 10.5896ZM25.1971 12.7884C24.8257 12.9553 24.7541 13.3935 24.92 13.6791C25.0859 13.9647 25.4544 14.0514 25.7381 13.9411C26.0934 13.8026 26.1924 13.403 26.0604 13.1042C25.9181 12.7818 25.5524 12.6292 25.1971 12.7894V12.7884ZM22.8578 14.9741C22.4647 15.1193 22.3526 15.5283 22.4826 15.8337C22.6212 16.157 22.9643 16.3068 23.2989 16.1787C23.608 16.0599 23.8041 15.6989 23.6702 15.3568C23.5581 15.0693 23.2244 14.8394 22.8578 14.9751V14.9741ZM27.7447 14.9751C27.3394 15.0863 27.1914 15.4727 27.2904 15.7724C27.4054 16.1221 27.7268 16.2908 28.0585 16.2088C28.3903 16.1268 28.608 15.7743 28.5081 15.4077C28.4318 15.1287 28.1085 14.8752 27.7456 14.9751H27.7447Z" fill="#00D4AA"/>
<path d="M29.7324 21.3559C29.3517 21.4756 28.9982 21.272 28.8964 20.96C28.7833 20.6113 28.9794 20.2239 29.3639 20.1429C29.7259 20.0675 30.0218 20.2654 30.1236 20.5661C30.2254 20.8667 30.1132 21.2362 29.7324 21.3549V21.3559Z" fill="white"/>
<path d="M21.5382 20.1287C21.8935 20.0712 22.1904 20.3162 22.2573 20.5905C22.3516 20.9751 22.1037 21.2927 21.8228 21.3568C21.4157 21.4501 21.0867 21.2418 21.017 20.8921C20.9472 20.5424 21.1744 20.1871 21.5382 20.1287Z" fill="white"/>
<path d="M22.8191 10.583C23.1481 10.451 23.5081 10.6207 23.6514 10.9195C23.8031 11.2361 23.657 11.6169 23.3328 11.7658C23.0086 11.9148 22.6363 11.7592 22.4789 11.4435C22.3215 11.1278 22.4478 10.731 22.8201 10.582L22.8191 10.583Z" fill="white"/>
<path d="M22.8578 14.9741C23.2244 14.8384 23.5581 15.0683 23.6703 15.3558C23.8041 15.6989 23.6081 16.0599 23.2989 16.1777C22.9634 16.3059 22.6212 16.156 22.4827 15.8327C22.3517 15.5273 22.4648 15.1192 22.8578 14.9731V14.9741Z" fill="white"/>
<path d="M27.6654 10.5896C28.0302 10.4529 28.3714 10.6659 28.4854 10.9694C28.608 11.2946 28.443 11.6668 28.0962 11.7875C27.8002 11.8912 27.4458 11.7668 27.3082 11.452C27.1782 11.1532 27.279 10.7338 27.6654 10.5896Z" fill="white"/>
<path d="M27.7447 14.9751C28.1075 14.8752 28.4318 15.1287 28.5072 15.4077C28.6071 15.7743 28.3959 16.1249 28.0576 16.2088C27.7192 16.2927 27.4044 16.123 27.2894 15.7724C27.1905 15.4727 27.3384 15.0863 27.7437 14.9751H27.7447Z" fill="white"/>
</svg>
