<?xml version="1.0" encoding="UTF-8"?>
<svg id="Layer_1" data-name="Layer 1" xmlns="http://www.w3.org/2000/svg" viewBox="430 100 580 580" fill="#00D4AA">
  <defs>
    <style>
      .cls-1 {
        fill: transparent;
      }
    </style>
  </defs>
  <path d="M894.06,623.79c-35.88,29.88-77.42,50.58-123,59.42-6.57,1.27-12.13,1.85-18.72,2.66-64.89,7.9-130.91-7.94-184.79-44.98-10.53-7.24-20.31-14.42-29.61-23.08-12.1-11.25-23.08-22.66-33.13-35.79-15.69-20.49-28.12-42.28-37.3-66.4-5.6-14.7-10.16-28.8-12.76-44.29l-3-17.81c-5.21-30.97-2.72-62.14,3.94-92.94,10.37-47.97,33.65-91.58,67.07-127.36,37.62-40.28,85.36-67.69,139.1-79.72,13.28-2.97,25.67-5.22,39.28-6.01,13.26-.78,26.36-.89,39.67-.12,39.93,2.32,83.63,15.97,117.76,36.68,26.33,15.97,49.58,35.89,69.08,59.67,15.11,18.42,27.51,37.65,37.45,59.29,15.44,33.64,22.66,64.52,24.67,101.55.66,12.08.08,23.69-.9,35.77-5.77,71.14-39.59,137.51-94.8,183.48ZM829.31,647.71c31.78-15.41,59.54-36.7,82.94-63.26,36.64-41.58,59.16-96.86,62.13-152.41.95-17.77.53-34.42-2.11-52.1-8.3-55.82-34.83-107.94-75.46-147.19-28.32-27.36-62.33-47.46-99.78-59.38-62.74-19.98-130.11-13.58-189.03,15.26-42.57,20.84-77.73,52.81-103.18,92.77-20.05,31.48-33.01,66.54-37.79,103.82-8.08,63.09,6.55,124.16,41.95,176.67,7.21,10.69,14.8,19.73,23.59,29.14,75.47,80.81,196.42,105.32,296.74,56.69Z"/>
  <path d="M847.45,578.59c-2.73,4.89-5.25,8.96-8.62,13.25.75-10.45,2.24-19.36,3.57-29.44.33-2.49-1.3-6.11-1.96-8.58l-8.06-29.94-17.45-6.12-29.58-8.97c-.62-.19-1.89.04-2.32.18s.66,1.3,1.11,1.56c7.07,4.13,14.04,8.81,20.8,13.46l11.35,7.81-2.59,35.1c-.42,5.73-2.93,9.2-7.68,11.98-11.07,6.48-20.7,14.48-32.85,20.36,5.57-8.94,11.24-16.88,17.31-24.69,2.99-3.85,4.38-6.98,4.88-12.01l2.2-22.19-13.14-8.54c-6.8-4.43-13.26-8.21-19.97-13.47l-86.97-.04-31.61,20.31c-.81.52-1.96,1.57-2.77,2.31l3.02,27.14c7.14,10.4,15.28,19.39,22.26,30.79-13.1-6.68-24.71-14.06-36.5-21.69-3.38-2.19-5.14-5.11-5.36-9.09l-2.07-36.43,32.21-21.32c.66-.44,1.5-2.04,1.09-2.06s-1.36.02-1.93.2l-28.95,8.99-18.35,6.3-8.54,32.66c-.72,2.74-1.93,5.45-1.48,8.34,1.44,9.28,2.89,17.8,3.35,27.19-6.19-9.07-10.79-17.48-15.91-26.6-1.16-2.06-4.16-5.45-3.49-8.02l8.48-32.36c1.38-5.28,2.38-10.68,4.51-15.33l29.02-9.49c3.86-1.26,8.01-1.19,11.36-4.47l-41.53,2.68-29.92,34.46-13.27,23.72c0-6.4.22-12.56.81-18.76l1.75-18.43,20.69-23.73,11.81-13.61c12.52-1.54,24.7-1.06,37.65-3.41l-37.42-8.26c-7.07-1.56-14.8-1.49-21.52-4.27-5.02-2.08-9.26-6.21-14.32-8.7-2.72-1.34-5.77-3.28-7.91-5.64-1.9-1.79-9.79-34.46-7.11-32.11l1.11.97c5.88,5.16,8.3,14.06,14.76,18.78,17.28,12.64,20.45,11.33,41.01,15.02l16.08,2.88c-4.42-9.9,2.06-7.93,4.27-15.61l-23.17-8.31c-6.89-2.47-11.8-6.58-16.05-12.56-2.51-3.53-3.63-7.45-2.65-12.09-9.55-7.43-17.96-12.57-22.95-24.19-4.96-11.56-5.88-23.85-4.31-36.32-10.96-18.2-10.37-42.39-1.71-61.37,4.13-9.05,10.03-16.56,16.96-23.5,4.86-.94,9.79-1.47,14.84-1.85,15.96-25.76,46.18-40.93,76.66-38.58l.81,1.27c-15.43,11.13-34.89,28.5-42,46.76,16.83,11.56,23.45,22.08,33.4,39.04,1.52,2.59,2.07,5.25,1.19,8.2-3.27,10.88-9.53,19.74-17.65,27.45-8.76,8.32-18.71,13.32-31.09,15.64,4.68,8.38,5.31,16.74,4.84,25.6,4.53,1.76,8.16,3.88,10.77,7.53,2.01,2.36,4.24,4.98,6.73,6.7l15.99,11.04,18.52-15.94,33.76-8.98c-.75-2.72-1.66-4.35-3.15-6.31-7.03,2.04-12.73-1.31-16.01-6.78s-2-13.44,3.39-17.67,13.36-3.67,18.47.56c4.07,3.38,3.05,8.01,4.7,12.35,1.82,4.81,5.84,9.06,8.36,13.9l37.99.04,8.21-13.35c.32-5.94,1.66-11.06,6.3-13.9s10.24-3.39,15.28-.67c5.96,3.21,8.22,11.08,5.87,17.11-2.6,6.66-9.25,9.9-16.68,8.79-1.81.7-3.24,3.43-3.27,5.88l33.6,8.59,18.78,16.06c7.36-4.6,15.11-8.81,21.02-15.25,3.72-4.06,6.97-7.86,12.3-9.98-.33-9.21,1.15-17.21,4.7-25.6-20.83-3.79-36.55-17.44-45.26-35.44-1.65-3.41-3.37-7.31-3.8-11.23,9.13-19.39,18.03-30.75,35.44-43.53-5.97-16-24.41-34.62-38.23-43.72-1.58-1.04-2.99-2.21-4.6-3.85,18.15-2.11,35.87,2.42,51.72,11.74,10.85,6.38,19.3,15.56,26.1,26.27l14.88,1.66c18.61,17.03,31.2,43.52,22.94,67.06l-6.37,18.14c-1.43,4.06,2.73,29.06-9.89,44.66-5.15,6.37-11.96,11.23-18.49,15.94.62,4.9.19,9.69-3.26,13.45-2.9,3.15-6.2,7.3-10.37,8.88l-28.47,10.8,6.31,9.2-1.52,6.26,41.49-8.11,15.21-9.17c4.79-3.36,7.08-10.25,10.69-14.57l5.5-6.59c.39,7.76-4.11,27.35-8.06,33.72-6.98,5.12-14.23,10.23-22.11,13.73-4.46,1.98-10.37,1.96-15.19,2.97l-42.6,8.93c5.2,2.19,9.96,1.35,14.98,1.75l22.39,1.77,18.2,21.38,11.49,13.38c1.75,2.04,3.22,4.24,3.39,6.96l2.02,31.64c-.54.64-1.32,1.58-.93,1.11l-4.44-8.33c-6.07-11.39-3.57-10.81-12.69-21.04l-16.3-18.28-9.33-10.46-11.59-.59-28.76-1.97-.78,1.19,11.09,3.49,29.87,9.29,12.39,49.19-11.11,19.91ZM677.47,360.41c-3.86.62-6.27,4.45-5.53,8.1s4.23,5.92,8.55,4.93c2.98-.68,5.6-4.05,4.61-8.13-.71-2.91-3.86-5.51-7.63-4.9ZM764.41,373.43c4.04-1.27,5.28-5.04,4.15-8.37s-4.22-5.3-8.06-4.49c-4.08.85-6.16,4.97-4.96,8.67,1.08,3.31,4.83,5.47,8.87,4.2Z"/>
  <path d="M758.87,326.13l-57.58-.18-21.37-.16.11-74.59h78.65s-.04,51.75-.04,51.75l.23,23.19ZM691.06,259.13c-3.95,1.58-5.33,5.7-3.62,9.14s5.6,5.01,9.06,3.42,4.99-5.63,3.38-8.98c-1.53-3.18-5.34-4.97-8.83-3.57ZM742.48,259.2c-4.09,1.53-5.17,5.98-3.79,9.15,1.46,3.35,5.22,4.66,8.36,3.56,3.68-1.28,5.43-5.23,4.13-8.68-1.21-3.22-4.83-5.47-8.7-4.03ZM716.29,282.53c-3.94,1.77-4.7,6.42-2.94,9.45s5.67,3.95,8.68,2.78c3.77-1.47,4.82-5.71,3.42-8.88-1.51-3.42-5.39-5.04-9.16-3.34ZM691.47,305.72c-4.17,1.54-5.36,5.88-3.98,9.12,1.47,3.43,5.11,5.02,8.66,3.66,3.28-1.26,5.36-5.09,3.94-8.72-1.19-3.05-4.73-5.49-8.62-4.05ZM743.32,305.73c-4.3,1.18-5.87,5.28-4.82,8.46,1.22,3.71,4.63,5.5,8.15,4.63s5.83-4.61,4.77-8.5c-.81-2.96-4.24-5.65-8.09-4.59Z"/>
  <path class="cls-1" d="M764.41,373.43c-4.04,1.27-7.79-.89-8.87-4.2-1.2-3.7.88-7.81,4.96-8.67,3.84-.8,6.98,1.3,8.06,4.49s-.11,7.11-4.15,8.37Z"/>
  <path class="cls-1" d="M677.47,360.41c3.77-.61,6.92,1.99,7.63,4.9,1,4.08-1.63,7.45-4.61,8.13-4.32.99-7.81-1.22-8.55-4.93s1.67-7.48,5.53-8.1Z"/>
  <path class="cls-1" d="M691.06,259.13c3.49-1.4,7.31.4,8.83,3.57,1.61,3.36.06,7.4-3.38,8.98s-7.39-.07-9.06-3.42-.33-7.56,3.62-9.14Z"/>
  <path class="cls-1" d="M691.47,305.72c3.89-1.44,7.43,1,8.62,4.05,1.42,3.64-.66,7.47-3.94,8.72-3.56,1.36-7.19-.23-8.66-3.66-1.39-3.24-.19-7.57,3.98-9.12Z"/>
  <path class="cls-1" d="M742.48,259.2c3.87-1.45,7.49.81,8.7,4.03,1.3,3.45-.45,7.4-4.13,8.68-3.14,1.1-6.9-.22-8.36-3.56-1.38-3.17-.31-7.62,3.79-9.15Z"/>
  <path class="cls-1" d="M743.32,305.73c3.85-1.06,7.29,1.63,8.09,4.59,1.06,3.89-1.18,7.61-4.77,8.5s-6.93-.91-8.15-4.63c-1.05-3.18.52-7.28,4.82-8.46Z"/>
</svg>